<?xml version="1.0" encoding="utf-8"?>
<!-- Generator: Adobe Illustrator 16.0.0, SVG Export Plug-In . SVG Version: 6.00 Build 0)  -->
<!DOCTYPE svg PUBLIC "-//W3C//DTD SVG 1.1//EN" "http://www.w3.org/Graphics/SVG/1.1/DTD/svg11.dtd">
<svg version="1.1" id="Layer_1" xmlns="http://www.w3.org/2000/svg" xmlns:xlink="http://www.w3.org/1999/xlink" x="0px" y="0px"
	 width="32px" height="32px" viewBox="0 0 32 32" enable-background="new 0 0 32 32" xml:space="preserve">
<path fill="#FFFFFF" d="M16.066,31.986c8.837,0,16-7.163,16-16s-7.163-16-16-16c-8.836,0-16,7.164-16,16S7.23,31.986,16.066,31.986z
	 M11.262,13.511h2.846v-2.637c0,0-0.119-1.724,1.189-3.032c1.307-1.308,3.068-1.184,5.574-0.966V9.82h-1.854
	c0,0-0.777-0.016-1.145,0.404c-0.365,0.421-0.326,1.021-0.326,1.168v2.118h3.215L20.35,16.79h-2.818v8.445h-3.412v-8.461h-2.857
	V13.511z"/>
</svg>
