<?xml version="1.0" encoding="utf-8"?>
<!-- Generator: Adobe Illustrator 16.0.0, SVG Export Plug-In . SVG Version: 6.00 Build 0)  -->
<!DOCTYPE svg PUBLIC "-//W3C//DTD SVG 1.1//EN" "http://www.w3.org/Graphics/SVG/1.1/DTD/svg11.dtd">
<svg version="1.1" id="Layer_1" xmlns="http://www.w3.org/2000/svg" xmlns:xlink="http://www.w3.org/1999/xlink" x="0px" y="0px"
	 width="32px" height="32px" viewBox="0 0 32 32" enable-background="new 0 0 32 32" xml:space="preserve">
<g>
	<path fill="#FFFFFF" d="M21.408,9.751h-1.303c-0.447,0-0.811,0.363-0.811,0.811v1.302c0,0.448,0.363,0.811,0.811,0.811h1.303
		c0.447,0,0.811-0.363,0.811-0.811v-1.302C22.219,10.115,21.855,9.751,21.408,9.751z"/>
	<path fill="#FFFFFF" d="M16,19.268c1.819,0,3.295-1.477,3.295-3.296c0-0.548-0.135-1.065-0.371-1.52
		c-0.068-0.13-0.145-0.256-0.229-0.375c-0.002-0.003-0.004-0.006-0.006-0.009c-0.061-0.085-0.125-0.168-0.193-0.248
		c-0.006-0.005-0.01-0.011-0.015-0.016c-0.065-0.076-0.136-0.148-0.208-0.218c-0.008-0.006-0.015-0.014-0.022-0.021
		c-0.022-0.021-0.045-0.042-0.067-0.062c-0.01-0.008-0.018-0.016-0.027-0.022c-0.039-0.036-0.081-0.069-0.123-0.102
		c-0.012-0.009-0.022-0.018-0.034-0.027c-0.021-0.017-0.043-0.033-0.064-0.049c-0.015-0.011-0.03-0.021-0.046-0.032
		c-0.026-0.02-0.055-0.038-0.082-0.057c-0.025-0.017-0.052-0.034-0.078-0.05c-0.02-0.013-0.039-0.024-0.06-0.036
		s-0.041-0.024-0.062-0.035c-0.02-0.011-0.039-0.021-0.058-0.032c-0.036-0.019-0.073-0.038-0.11-0.056
		c-0.016-0.007-0.031-0.015-0.047-0.022c-0.028-0.012-0.055-0.025-0.082-0.037c-0.018-0.007-0.035-0.015-0.053-0.022
		c-0.033-0.014-0.067-0.027-0.102-0.04c-0.014-0.005-0.027-0.011-0.041-0.016c-0.039-0.014-0.076-0.027-0.115-0.039
		c-0.016-0.005-0.031-0.01-0.047-0.015c-0.034-0.011-0.068-0.021-0.104-0.03c-0.012-0.003-0.023-0.006-0.035-0.009
		c-0.045-0.012-0.092-0.022-0.137-0.032c-0.014-0.002-0.027-0.005-0.039-0.008c-0.038-0.007-0.075-0.014-0.112-0.02
		c-0.013-0.002-0.026-0.004-0.039-0.006c-0.048-0.007-0.095-0.014-0.144-0.019c-0.01-0.001-0.02-0.001-0.027-0.002
		c-0.041-0.004-0.083-0.007-0.125-0.009c-0.014-0.001-0.027-0.001-0.041-0.002C16.1,12.676,16.05,12.675,16,12.675
		c-0.051,0-0.102,0.001-0.151,0.003c-0.015,0.001-0.028,0.001-0.042,0.002c-0.041,0.002-0.082,0.005-0.125,0.009
		c-0.008,0.001-0.018,0.001-0.025,0.002c-0.049,0.005-0.098,0.011-0.146,0.019c-0.013,0.002-0.025,0.004-0.038,0.006
		c-0.038,0.006-0.074,0.013-0.111,0.02c-0.014,0.002-0.027,0.005-0.039,0.008c-0.047,0.01-0.093,0.02-0.138,0.032
		c-0.013,0.003-0.023,0.006-0.036,0.009c-0.033,0.009-0.068,0.019-0.104,0.03c-0.016,0.005-0.031,0.009-0.047,0.015
		c-0.038,0.012-0.076,0.025-0.114,0.039c-0.015,0.005-0.028,0.01-0.042,0.016c-0.034,0.013-0.067,0.026-0.102,0.04
		c-0.018,0.008-0.034,0.015-0.052,0.022c-0.027,0.012-0.055,0.024-0.081,0.037c-0.018,0.007-0.033,0.015-0.049,0.022
		c-0.037,0.018-0.073,0.037-0.109,0.056c-0.02,0.011-0.039,0.021-0.058,0.032c-0.021,0.011-0.041,0.023-0.062,0.035
		c-0.02,0.012-0.04,0.023-0.06,0.036c-0.026,0.016-0.053,0.033-0.079,0.05c-0.027,0.019-0.055,0.037-0.082,0.057
		c-0.015,0.01-0.029,0.021-0.045,0.032c-0.021,0.016-0.044,0.032-0.065,0.049c-0.012,0.009-0.022,0.018-0.034,0.027
		c-0.041,0.033-0.082,0.066-0.123,0.102c-0.009,0.007-0.018,0.015-0.025,0.022c-0.023,0.02-0.047,0.041-0.068,0.062
		c-0.008,0.007-0.016,0.015-0.023,0.021c-0.072,0.07-0.142,0.143-0.207,0.218c-0.005,0.005-0.01,0.01-0.014,0.016
		c-0.068,0.079-0.133,0.162-0.194,0.248c-0.003,0.003-0.004,0.006-0.007,0.009c-0.084,0.119-0.16,0.245-0.229,0.375
		c-0.236,0.455-0.371,0.972-0.371,1.52C12.703,17.791,14.18,19.268,16,19.268z"/>
	<path fill="#FFFFFF" d="M16,0C7.163,0,0,7.164,0,16c0,8.836,7.163,16,16,16c8.836,0,16-7.164,16-16C32,7.164,24.836,0,16,0z
		 M24.054,22.322c0,0.955-0.776,1.73-1.732,1.73H9.678c-0.957,0-1.732-0.775-1.732-1.73V9.678c0-0.957,0.775-1.732,1.732-1.732
		h12.644c0.956,0,1.732,0.775,1.732,1.732V22.322z"/>
	<path fill="#FFFFFF" d="M21.016,15.971c0,2.769-2.246,5.015-5.016,5.015c-2.771,0-5.016-2.246-5.016-5.015
		c0-0.53,0.081-1.04,0.233-1.519H9.809v6.706c0,0.57,0.462,1.033,1.031,1.033h10.318c0.57,0,1.032-0.463,1.032-1.033v-6.706h-1.409
		C20.934,14.931,21.016,15.441,21.016,15.971z"/>
</g>
</svg>
