<?xml version="1.0" encoding="utf-8"?>
<!-- Generator: Adobe Illustrator 16.0.0, SVG Export Plug-In . SVG Version: 6.00 Build 0)  -->
<!DOCTYPE svg PUBLIC "-//W3C//DTD SVG 1.1//EN" "http://www.w3.org/Graphics/SVG/1.1/DTD/svg11.dtd">
<svg version="1.1" id="Layer_1" xmlns="http://www.w3.org/2000/svg" xmlns:xlink="http://www.w3.org/1999/xlink" x="0px" y="0px"
	 width="32px" height="32px" viewBox="0 0 32 32" enable-background="new 0 0 32 32" xml:space="preserve">
<path fill="#FFFFFF" d="M16.004,32c8.835,0,16-7.164,16-16c0-8.836-7.164-16-16-16c-8.837,0-16,7.164-16,16
	C0.004,24.836,7.167,32,16.004,32z M12.137,22.949H9.243v-9.283h2.895V22.949z M13.952,13.666h2.775v1.313
	c0.744-1.218,2.152-1.908,4.291-1.313c2.137,0.595,1.961,4.25,1.961,4.25v5.033H20.07v-4.777c0-0.541,0.121-2.178-1.611-2.178
	c-1.732,0-1.625,2.167-1.625,2.167v4.789h-2.883V13.666z M10.702,9.051c0.926,0,1.676,0.75,1.676,1.676
	c0,0.926-0.75,1.676-1.676,1.676s-1.676-0.75-1.676-1.676C9.026,9.801,9.776,9.051,10.702,9.051z"/>
</svg>
