<?xml version="1.0" encoding="utf-8"?>
<!-- Generator: Adobe Illustrator 16.0.0, SVG Export Plug-In . SVG Version: 6.00 Build 0)  -->
<!DOCTYPE svg PUBLIC "-//W3C//DTD SVG 1.1//EN" "http://www.w3.org/Graphics/SVG/1.1/DTD/svg11.dtd">
<svg version="1.1" id="Layer_1" xmlns="http://www.w3.org/2000/svg" xmlns:xlink="http://www.w3.org/1999/xlink" x="0px" y="0px"
	 width="32px" height="32px" viewBox="0 0 32 32" enable-background="new 0 0 32 32" xml:space="preserve">
<path fill="#FFFFFF" d="M16,32c8.836,0,16-7.163,16-16S24.836,0,16,0C7.163,0,0,7.164,0,16S7.163,32,16,32z M8.092,21.215
	l6.062-4.559c0,0,1.002,1.081,1.898,1.081s1.818-1.081,1.818-1.081l5.877,4.559H8.092z M24.275,20.847l-6.088-4.402l6.088-5.14
	V20.847z M8.672,9.786h14.655c0.79,0,0.79,0.423,0.79,0.423l-7.248,5.613c-0.211,0.212-0.447,0.264-0.922,0.264
	s-0.844-0.396-0.844-0.396l-7.117-5.614C8.211,9.853,8.672,9.786,8.672,9.786z M7.723,11.12l6.037,5.22l-6.037,4.507V11.12z"/>
</svg>
