<?xml version="1.0" encoding="utf-8"?>
<!-- Generator: Adobe Illustrator 16.0.0, SVG Export Plug-In . SVG Version: 6.00 Build 0)  -->
<!DOCTYPE svg PUBLIC "-//W3C//DTD SVG 1.1//EN" "http://www.w3.org/Graphics/SVG/1.1/DTD/svg11.dtd">
<svg version="1.1" id="Layer_1" xmlns="http://www.w3.org/2000/svg" xmlns:xlink="http://www.w3.org/1999/xlink" x="0px" y="0px"
	 width="32px" height="32px" viewBox="0 0 32 32" enable-background="new 0 0 32 32" xml:space="preserve">
<g>
	<circle fill="#FFFFFF" cx="16" cy="9.825" r="0.377"/>
	<rect x="9.651" y="10.5" fill="#FFFFFF" width="12.7" height="8.036"/>
	<path fill="#FFFFFF" d="M16,0C7.164,0,0,7.164,0,16c0,8.836,7.163,16,16,16c8.835,0,16-7.164,16-16C32,7.164,24.836,0,16,0z
		 M8.451,10.068c0-0.714,0.58-1.294,1.295-1.294h12.51c0.715,0,1.295,0.58,1.295,1.294v9.653h-15.1V10.068z M25.371,23.227H6.631
		c-0.7,0-1.268-0.568-1.268-1.268s0.568-1.268,1.268-1.268h18.74c0.699,0,1.267,0.568,1.267,1.268S26.07,23.227,25.371,23.227z"/>
</g>
</svg>
