<?xml version="1.0" encoding="utf-8"?>
<!-- Generator: Adobe Illustrator 16.0.0, SVG Export Plug-In . SVG Version: 6.00 Build 0)  -->
<!DOCTYPE svg PUBLIC "-//W3C//DTD SVG 1.1//EN" "http://www.w3.org/Graphics/SVG/1.1/DTD/svg11.dtd">
<svg version="1.1" id="Layer_1" xmlns="http://www.w3.org/2000/svg" xmlns:xlink="http://www.w3.org/1999/xlink" x="0px" y="0px"
	 width="32px" height="32px" viewBox="0 0 32 32" enable-background="new 0 0 32 32" xml:space="preserve">
<path fill="#FFFFFF" d="M15.979,0c-8.836,0-16,7.164-16,16c0,8.837,7.164,16,16,16c8.837,0,16-7.163,16-16
	C31.979,7.164,24.815,0,15.979,0z M20.803,23.966c0,0-1.886,0.502-3.019,0.502c-1.134,0-4.345-0.119-4.86-3.389v-6.95h-1.767v-2.93
	h0.501c0,0,1.457-0.339,2.135-1.531c0.678-1.193,0.604-2.135,0.604-2.135h2.4v3.667h3.799v2.945h-3.77v4.8
	c0,0,0.029,0.767,0.104,1.061c0.074,0.295,0.662,1.002,1.591,1.002c0.927,0,2.282-0.588,2.282-0.588V23.966z"/>
</svg>
